<svg width="158" height="46" viewBox="0 0 158 46" fill="none" xmlns="http://www.w3.org/2000/svg">
<path d="M88.709 10.6416C90.8425 10.6416 92.7286 11.1746 94.3701 12.2402C96.0439 13.3059 97.3407 14.8046 98.2588 16.7363C99.2109 18.6348 99.6865 20.8836 99.6865 23.4814C99.6865 26.0459 99.2108 28.2939 98.2588 30.2256C97.3407 32.1573 96.0606 33.6569 94.4199 34.7227C92.7784 35.7884 90.8749 36.3213 88.709 36.3213C86.7399 36.3213 85.033 35.938 83.5889 35.1719C82.4998 34.5691 81.5976 33.8714 80.8818 33.0791V45.9639H75.3184V10.9912H80.3398L80.7334 14.0889C81.5539 13.123 82.6209 12.3067 83.9336 11.6406C85.2463 10.9745 86.8383 10.6416 88.709 10.6416ZM38.6064 0C42.028 0.000104329 44.8025 2.77377 44.8027 6.19531V38.6064C44.8027 42.0282 42.0282 44.8026 38.6064 44.8027H6.19531C2.7737 44.8025 0 42.0281 0 38.6064V6.19531C0.000266098 2.77386 2.77386 0.000249913 6.19531 0H38.6064ZM22.4541 5.37695C19.9408 5.37701 18.9425 6.4357 17.3467 9.07227C17.2279 9.22184 17.1182 9.38067 17.0195 9.54785L8.2002 24.4941C8.11209 24.5677 8.01866 24.6923 7.91895 24.873C6.6684 27.1399 4.48048 29.5902 4.48047 32.1592C4.48096 34.7275 5.60048 36.5107 6.98145 36.5107C7.5961 36.51 8.15849 36.095 8.59375 35.4102C8.60873 35.4191 8.62587 35.426 8.6416 35.4346L21.6396 12.0254C21.8631 11.6232 22.4388 11.6138 22.6748 12.0088L29.6182 23.6289C29.877 24.063 29.5093 24.6335 29.0039 24.6279C26.9769 24.6039 23.6754 25.0576 20.5801 26.9883C18.061 28.5597 13.8199 32.4711 10.459 35.6953C10.4773 35.6945 10.4964 35.6952 10.5146 35.6943C14.3743 32.7489 20.5718 30.7445 25.6826 30.2656C31.9009 29.6833 34.9324 31.6514 36.3018 34.75C36.3233 34.7819 36.3475 34.8147 36.3691 34.8477C38.557 38.1703 41.057 36.2066 40.1201 31.8252C39.9039 30.8148 39.6205 29.9399 39.2822 29.1934C39.2134 29.0171 39.1306 28.8437 39.0352 28.6777L38.9131 28.4658C38.9051 28.4518 38.8958 28.4367 38.8877 28.4229L28.0352 9.58496C27.9877 9.50258 27.9363 9.42106 27.8838 9.34277C26.6699 7.00299 25.0439 5.3775 22.4541 5.37695ZM145.241 10.6416C147.571 10.6416 149.623 11.1578 151.395 12.1904C153.167 13.223 154.546 14.6721 155.531 16.5371C156.548 18.3689 157.056 20.5005 157.056 22.9316C157.056 23.3312 157.04 23.7644 157.007 24.2305C156.974 24.6635 156.924 25.1303 156.858 25.6299H139.335C139.498 26.7954 139.859 27.8109 140.417 28.6768C141.008 29.5094 141.745 30.1598 142.632 30.626C143.518 31.0924 144.536 31.3252 145.685 31.3252C147.062 31.3251 148.294 31.0417 149.377 30.4756C150.492 29.9094 151.264 29.1602 151.691 28.2275L156.563 29.876C155.579 31.8742 154.119 33.4564 152.183 34.6221C150.246 35.7544 148.081 36.3212 145.685 36.3213C143.224 36.3213 141.057 35.7719 139.186 34.6729C137.349 33.5736 135.903 32.0413 134.854 30.0762C133.836 28.111 133.328 25.8459 133.328 23.2812C133.328 20.8502 133.836 18.6855 134.854 16.7871C135.871 14.8887 137.282 13.3893 139.088 12.29C140.893 11.191 142.944 10.6416 145.241 10.6416ZM62.9453 10.6416C66.1615 10.6416 68.5736 11.4577 70.1816 13.0898C71.7898 14.7219 72.5938 16.8037 72.5938 19.335V35.9717H67.4746L66.9814 32.9238C66.1938 33.9896 65.2589 34.8059 64.1758 35.3721C63.0928 35.9382 61.6486 36.2217 59.8438 36.2217C58.1372 36.2217 56.6601 35.9383 55.4131 35.3721C54.166 34.7725 53.1981 33.9564 52.5088 32.9238C51.8524 31.858 51.5244 30.6254 51.5244 29.2266C51.5245 27.1283 52.2795 25.3802 53.7891 23.9814C55.3315 22.5493 57.5794 21.6661 60.5332 21.333L66.9814 20.6338V18.6855C66.9814 17.8862 66.6373 17.17 65.9482 16.5371C65.2591 15.8711 64.159 15.5381 62.6494 15.5381C61.3368 15.5381 60.1886 15.8712 59.2041 16.5371C58.2523 17.17 57.6122 18.1356 57.2842 19.4346L52.459 17.6357C53.0825 15.4376 54.3136 13.7225 56.1514 12.4902C58.022 11.2579 60.2869 10.6416 62.9453 10.6416ZM127.552 15.9375L130.431 10.9912H133.312V15.9375H127.552V27.0283C127.552 28.527 127.831 29.5762 128.388 30.1758C128.946 30.742 129.668 31.0584 130.555 31.125C131.475 31.1583 132.393 31.1089 133.312 30.9756V35.7715C131.9 36.0713 130.505 36.1549 129.127 36.0215C127.781 35.9215 126.566 35.5546 125.484 34.9219C124.401 34.2558 123.531 33.2899 122.875 32.0244C122.219 30.7588 121.891 29.0934 121.891 27.0283V15.9375H118.444L121.891 10.9912V3.99707H127.552V15.9375ZM107.002 35.9717H101.438V0H107.002V35.9717ZM116.41 35.9717H110.848V10.9912H116.41V35.9717ZM61.0742 25.7295C59.8273 25.8961 58.8921 26.263 58.2686 26.8291C57.6452 27.362 57.3331 28.0444 57.333 28.877C57.333 29.643 57.629 30.3099 58.2197 30.876C58.843 31.4086 59.6798 31.6747 60.7295 31.6748C62.0751 31.6748 63.208 31.4254 64.127 30.9258C65.0786 30.4263 65.7837 29.7098 66.2432 28.7773C66.7355 27.8449 66.9814 26.6955 66.9814 25.3301V24.9805L61.0742 25.7295ZM87.3301 15.7373C86.1488 15.7374 85.0655 16.0373 84.0811 16.6367C83.1294 17.2361 82.3583 18.1021 81.7676 19.2344C81.1769 20.3668 80.8818 21.7828 80.8818 23.4814C80.8818 25.1466 81.177 26.562 81.7676 27.7275C82.3583 28.86 83.1293 29.7267 84.0811 30.3262C85.0655 30.9256 86.1488 31.2255 87.3301 31.2256C89.2006 31.2256 90.7266 30.5093 91.9082 29.0771C93.123 27.6451 93.7305 25.7796 93.7305 23.4814C93.7305 21.1833 93.123 19.3179 91.9082 17.8857C90.7266 16.4537 89.2006 15.7373 87.3301 15.7373ZM145.241 15.5381C144.322 15.5381 143.452 15.7711 142.632 16.2373C141.812 16.7037 141.105 17.3531 140.516 18.1855C139.957 18.9849 139.596 19.9342 139.433 21.0332H151.002C150.969 20.0008 150.689 19.068 150.164 18.2354C149.639 17.4027 148.949 16.7534 148.097 16.2871C147.243 15.7875 146.291 15.5381 145.241 15.5381ZM113.652 0C114.638 9.64422e-06 115.475 0.349465 116.165 1.04883C116.853 1.74828 117.197 2.61495 117.197 3.64746C117.197 4.61323 116.853 5.44614 116.165 6.14551C115.475 6.84487 114.638 7.19433 113.652 7.19434C112.636 7.19424 111.782 6.84482 111.093 6.14551C110.404 5.44614 110.061 4.61323 110.061 3.64746C110.061 2.61495 110.404 1.74828 111.093 1.04883C111.782 0.349511 112.636 9.32485e-05 113.652 0Z" fill="#111A4A"/>
</svg>
